<?xml version="1.0" encoding="utf-8"?>
<!-- Generator: Adobe Illustrator 25.0.0, SVG Export Plug-In . SVG Version: 6.00 Build 0)  -->
<svg version="1.1" id="Capa_1" xmlns="http://www.w3.org/2000/svg" xmlns:xlink="http://www.w3.org/1999/xlink" x="0px" y="0px"
	 viewBox="0 0 1080 1080" style="enable-background:new 0 0 1080 1080;" xml:space="preserve">
<style type="text/css">
	.st0{fill:#FFFFFF;}
	.st1{fill:#1D1D1B;}
	.st2{font-family:'MasonSerif';}
	.st3{font-size:146.2136px;}
	.st4{font-family:'BaskOldFace';}
	.st5{fill:url(#SVGID_1_);}
	.st6{fill:url(#SVGID_2_);}
	.st7{fill:url(#SVGID_3_);}
	.st8{fill:url(#SVGID_4_);}
	.st9{fill:url(#SVGID_5_);}
	.st10{fill:url(#SVGID_6_);}
</style>
<rect class="st0" width="1080" height="1080"/>
<text transform="matrix(1 0 0 1 227.7218 847.5308)" class="st1 st2 st3">RÊVE</text>
<text transform="matrix(0.9246 0 0 0.9246 607.2491 847.5308)" class="st1 st4 st3">U</text>
<text transform="matrix(1 0 0 1 709.0353 847.5308)" class="st1 st2 st3">SE</text>
<g>
	<linearGradient id="SVGID_1_" gradientUnits="userSpaceOnUse" x1="438.4274" y1="479.8519" x2="775.6145" y2="479.8519">
		<stop  offset="0" style="stop-color:#991A15"/>
		<stop  offset="0.5" style="stop-color:#B7605C"/>
		<stop  offset="0.6094" style="stop-color:#9E4B47"/>
		<stop  offset="0.7694" style="stop-color:#7F322D"/>
		<stop  offset="0.9053" style="stop-color:#6C231E"/>
		<stop  offset="1" style="stop-color:#651D18"/>
	</linearGradient>
	<path class="st5" d="M571.72,515.98c20.78,4.75,45.55,8.59,73.59,9.4c54.89,1.58,99.95-9.12,130.3-19.09
		c-228.37,49.05-242.16-67.44-242.16-67.44c45.21,26.44,88.89,18.01,88.89,18.01c-54.41,1.53-71.65-27.59-71.65-27.59
		c121.08,22.22,163.61-19.16,163.61-19.16c-61.69,12.26-75.1-0.38-75.1-0.38c119.55-51.34,129.13-128.36,129.13-128.36
		s-13.03,61.69-100.77,77.02c-87.75,15.33-139.09,53.64-139.09,53.64c9.25-8.68,20.55-17.96,34.1-26.82
		c27.96-18.27,54.89-27.77,75.1-32.95c7.77-1.28,83.85-15.05,109.59-77.66c7.1-17.26,8.57-33.88,8.05-47.26
		c-4.34,12.82-16.66,43.53-47.9,68.59c-34.87,27.97-71.95,31.78-85.13,32.52c-15.04,1.19-53.82,6.42-84.86,36.97
		c-9.85,9.69-16.75,19.8-21.59,28.59c-18.39-4.98-25.29-42.53-25.29-42.53c27.97-10.73,41-34.1,41-34.1
		c-13.79,14.94-37.93,17.24-37.93,17.24c51.73-32.19,37.93-77.02,37.93-77.02c-4.6,50.19-52.88,61.69-52.88,61.69
		c-19.54,6.13-24.91,24.91-24.91,24.91c-14.18,9.2-15.33,18.39-15.33,18.39s9.58-13.41,23.37-7.66c0,0,3.07,4.98,7.66,6.9
		c0,0,7.66,23.37-4.98,43.3c0,0-26.82,55.94,13.41,85.45c0,0,36.4,29.89,73.18,39.08c36.78,9.2,62.46,84.68,62.46,84.68
		s-12.26-58.62-29.5-76.63c0,0,97.71,43.3,80.08,194.65C664.11,732.36,695.55,551.68,571.72,515.98z"/>
	<linearGradient id="SVGID_2_" gradientUnits="userSpaceOnUse" x1="607.0209" y1="579.5522" x2="810.9788" y2="579.5522">
		<stop  offset="0" style="stop-color:#991A15"/>
		<stop  offset="0.5" style="stop-color:#B7605C"/>
		<stop  offset="0.6094" style="stop-color:#9E4B47"/>
		<stop  offset="0.7694" style="stop-color:#7F322D"/>
		<stop  offset="0.9053" style="stop-color:#6C231E"/>
		<stop  offset="1" style="stop-color:#651D18"/>
	</linearGradient>
	<path class="st6" d="M709.71,584.84c0,0-32.57-42.15-102.69-57.09c0,0,45.98,11.49,91.96,66.67c42.07,50.48,102.09,35.53,112,32.63
		C802.33,629.5,755.4,639.52,709.71,584.84z"/>
	<linearGradient id="SVGID_3_" gradientUnits="userSpaceOnUse" x1="810.9788" y1="626.8246" x2="812.3985" y2="626.8246">
		<stop  offset="0" style="stop-color:#991A15"/>
		<stop  offset="0.5" style="stop-color:#B7605C"/>
		<stop  offset="0.6094" style="stop-color:#9E4B47"/>
		<stop  offset="0.7694" style="stop-color:#7F322D"/>
		<stop  offset="0.9053" style="stop-color:#6C231E"/>
		<stop  offset="1" style="stop-color:#651D18"/>
	</linearGradient>
	<path class="st7" d="M810.98,627.04c0.93-0.26,1.42-0.44,1.42-0.44S811.9,626.77,810.98,627.04z"/>
	<linearGradient id="SVGID_4_" gradientUnits="userSpaceOnUse" x1="648.6038" y1="243.5064" x2="743.282" y2="243.5064">
		<stop  offset="0" style="stop-color:#991A15"/>
		<stop  offset="0.5" style="stop-color:#B7605C"/>
		<stop  offset="0.6094" style="stop-color:#9E4B47"/>
		<stop  offset="0.7694" style="stop-color:#7F322D"/>
		<stop  offset="0.9053" style="stop-color:#6C231E"/>
		<stop  offset="1" style="stop-color:#651D18"/>
	</linearGradient>
	<path class="st8" d="M726.94,175.2c0,0,38.25,48.83-78.33,136.61C648.6,311.81,790.4,242.18,726.94,175.2z"/>
	<linearGradient id="SVGID_5_" gradientUnits="userSpaceOnUse" x1="313.2166" y1="258.3423" x2="391.6809" y2="258.3423">
		<stop  offset="0" style="stop-color:#991A15"/>
		<stop  offset="0.5" style="stop-color:#B7605C"/>
		<stop  offset="0.6094" style="stop-color:#9E4B47"/>
		<stop  offset="0.7694" style="stop-color:#7F322D"/>
		<stop  offset="0.9053" style="stop-color:#6C231E"/>
		<stop  offset="1" style="stop-color:#651D18"/>
	</linearGradient>
	<path class="st9" d="M391.68,333.1c-94.92-88.72-67.34-149.51-67.34-149.51C277.94,268.2,391.68,333.1,391.68,333.1z"/>
	<linearGradient id="SVGID_6_" gradientUnits="userSpaceOnUse" x1="288.9921" y1="345.7443" x2="448.2461" y2="345.7443">
		<stop  offset="0" style="stop-color:#991A15"/>
		<stop  offset="0.5" style="stop-color:#B7605C"/>
		<stop  offset="0.6094" style="stop-color:#9E4B47"/>
		<stop  offset="0.7694" style="stop-color:#7F322D"/>
		<stop  offset="0.9053" style="stop-color:#6C231E"/>
		<stop  offset="1" style="stop-color:#651D18"/>
	</linearGradient>
	<path class="st10" d="M397.05,346.89c-95.79-39.85-96.56-114.95-96.56-114.95s-12.26,84.3,91.96,142.54
		c0,0,20.69,10.73,39.85,35.25c0,0-37.55-31.42-78.93-39.85c0,0-49.05-15.33-64.37-77.4c0,0,19.16,96.56,84.3,126.45
		c0,0-3.83,12.26-47.51,3.07c0,0,59.01,30.65,100.39,18.39c0,0,10.73,3.83-24.52,19.16c0,0,39.85,0.77,45.21-29.12
		C458.13,367.6,397.05,346.89,397.05,346.89z"/>
</g>
</svg>
